<svg id="visual" viewBox="0 0 1000 80" width="1000" height="100" xmlns="http://www.w3.org/2000/svg" xmlns:xlink="http://www.w3.org/1999/xlink" version="1.1"><path d="M0 57L11.2 58.7C22.3 60.3 44.7 63.7 66.8 66C89 68.3 111 69.7 133.2 69.8C155.3 70 177.7 69 200 68.5C222.3 68 244.7 68 266.8 68.7C289 69.3 311 70.7 333.2 68.7C355.3 66.7 377.7 61.3 400 60.7C422.3 60 444.7 64 466.8 63.7C489 63.3 511 58.7 533.2 56.3C555.3 54 577.7 54 600 53.7C622.3 53.3 644.7 52.7 666.8 53.3C689 54 711 56 733.2 59.2C755.3 62.3 777.7 66.7 800 66.8C822.3 67 844.7 63 866.8 59.8C889 56.7 911 54.3 933.2 54.2C955.3 54 977.7 56 988.8 57L1000 58L1000 0L988.8 0C977.7 0 955.3 0 933.2 0C911 0 889 0 866.8 0C844.7 0 822.3 0 800 0C777.7 0 755.3 0 733.2 0C711 0 689 0 666.8 0C644.7 0 622.3 0 600 0C577.7 0 555.3 0 533.2 0C511 0 489 0 466.8 0C444.7 0 422.3 0 400 0C377.7 0 355.3 0 333.2 0C311 0 289 0 266.8 0C244.7 0 222.3 0 200 0C177.7 0 155.3 0 133.2 0C111 0 89 0 66.8 0C44.7 0 22.3 0 11.2 0L0 0Z" fill="#ffffff"></path><path d="M0 38L11.2 40.8C22.3 43.7 44.7 49.3 66.8 50.3C89 51.3 111 47.7 133.2 45.5C155.3 43.3 177.7 42.7 200 44.5C222.3 46.3 244.7 50.7 266.8 50.8C289 51 311 47 333.2 47C355.3 47 377.7 51 400 52C422.3 53 444.7 51 466.8 48.8C489 46.7 511 44.3 533.2 44C555.3 43.7 577.7 45.3 600 45.7C622.3 46 644.7 45 666.8 44.2C689 43.3 711 42.7 733.2 42.3C755.3 42 777.7 42 800 43.7C822.3 45.3 844.7 48.7 866.8 49C889 49.3 911 46.7 933.2 46.3C955.3 46 977.7 48 988.8 49L1000 50L1000 0L988.8 0C977.7 0 955.3 0 933.2 0C911 0 889 0 866.8 0C844.7 0 822.3 0 800 0C777.7 0 755.3 0 733.2 0C711 0 689 0 666.8 0C644.7 0 622.3 0 600 0C577.7 0 555.3 0 533.2 0C511 0 489 0 466.8 0C444.7 0 422.3 0 400 0C377.7 0 355.3 0 333.2 0C311 0 289 0 266.8 0C244.7 0 222.3 0 200 0C177.7 0 155.3 0 133.2 0C111 0 89 0 66.8 0C44.7 0 22.3 0 11.2 0L0 0Z" fill="#a2a2a2"></path><path d="M0 34L11.2 33C22.3 32 44.7 30 66.8 29.8C89 29.7 111 31.3 133.2 32.7C155.3 34 177.7 35 200 35C222.3 35 244.7 34 266.8 34C289 34 311 35 333.2 35.7C355.3 36.3 377.7 36.7 400 37C422.3 37.3 444.7 37.7 466.8 37.5C489 37.3 511 36.7 533.2 35.8C555.3 35 577.7 34 600 32.5C622.3 31 644.7 29 666.8 28.3C689 27.7 711 28.3 733.2 29.5C755.3 30.7 777.7 32.3 800 33C822.3 33.7 844.7 33.3 866.8 34.3C889 35.3 911 37.7 933.2 38C955.3 38.3 977.7 36.7 988.8 35.8L1000 35L1000 0L988.8 0C977.7 0 955.3 0 933.2 0C911 0 889 0 866.8 0C844.7 0 822.3 0 800 0C777.7 0 755.3 0 733.2 0C711 0 689 0 666.8 0C644.7 0 622.3 0 600 0C577.7 0 555.3 0 533.2 0C511 0 489 0 466.8 0C444.7 0 422.3 0 400 0C377.7 0 355.3 0 333.2 0C311 0 289 0 266.8 0C244.7 0 222.3 0 200 0C177.7 0 155.3 0 133.2 0C111 0 89 0 66.8 0C44.7 0 22.3 0 11.2 0L0 0Z" fill="#4e4e4e"></path><path d="M0 22L11.2 22.3C22.3 22.7 44.7 23.3 66.8 22.5C89 21.7 111 19.3 133.2 18C155.3 16.7 177.7 16.3 200 15.8C222.3 15.3 244.7 14.7 266.8 14.7C289 14.7 311 15.3 333.2 17C355.3 18.7 377.7 21.3 400 22.7C422.3 24 444.7 24 466.8 23.2C489 22.3 511 20.7 533.2 20.3C555.3 20 577.7 21 600 21.2C622.3 21.3 644.7 20.7 666.8 21C689 21.3 711 22.7 733.2 23C755.3 23.3 777.7 22.7 800 21.5C822.3 20.3 844.7 18.7 866.8 18C889 17.3 911 17.7 933.2 18.7C955.3 19.7 977.7 21.3 988.8 22.2L1000 23L1000 0L988.8 0C977.7 0 955.3 0 933.2 0C911 0 889 0 866.8 0C844.7 0 822.3 0 800 0C777.7 0 755.3 0 733.2 0C711 0 689 0 666.8 0C644.7 0 622.3 0 600 0C577.7 0 555.3 0 533.2 0C511 0 489 0 466.8 0C444.7 0 422.3 0 400 0C377.7 0 355.3 0 333.2 0C311 0 289 0 266.8 0C244.7 0 222.3 0 200 0C177.7 0 155.3 0 133.2 0C111 0 89 0 66.8 0C44.7 0 22.3 0 11.2 0L0 0Z" fill="#000000"></path></svg>