<svg id="visual" viewBox="0 0 1000 100" width="1000" height="100" xmlns="http://www.w3.org/2000/svg" xmlns:xlink="http://www.w3.org/1999/xlink" version="1.1"><path d="M0 43L13.8 40.8C27.7 38.7 55.3 34.3 83.2 33C111 31.7 139 33.3 166.8 35.3C194.7 37.3 222.3 39.7 250 38.2C277.7 36.7 305.3 31.3 333.2 28.8C361 26.3 389 26.7 416.8 26.5C444.7 26.3 472.3 25.7 500 25C527.7 24.3 555.3 23.7 583.2 23.8C611 24 639 25 666.8 28.5C694.7 32 722.3 38 750 40.2C777.7 42.3 805.3 40.7 833.2 39.5C861 38.3 889 37.7 916.8 34C944.7 30.3 972.3 23.7 986.2 20.3L1000 17L1000 101L986.2 101C972.3 101 944.7 101 916.8 101C889 101 861 101 833.2 101C805.3 101 777.7 101 750 101C722.3 101 694.7 101 666.8 101C639 101 611 101 583.2 101C555.3 101 527.7 101 500 101C472.3 101 444.7 101 416.8 101C389 101 361 101 333.2 101C305.3 101 277.7 101 250 101C222.3 101 194.7 101 166.8 101C139 101 111 101 83.2 101C55.3 101 27.7 101 13.8 101L0 101Z" fill="#ffffff"></path><path d="M0 37L13.8 36.7C27.7 36.3 55.3 35.7 83.2 38.3C111 41 139 47 166.8 48.8C194.7 50.7 222.3 48.3 250 45.5C277.7 42.7 305.3 39.3 333.2 41.3C361 43.3 389 50.7 416.8 54.2C444.7 57.7 472.3 57.3 500 55.7C527.7 54 555.3 51 583.2 51.2C611 51.3 639 54.7 666.8 56.7C694.7 58.7 722.3 59.3 750 58.7C777.7 58 805.3 56 833.2 53.3C861 50.7 889 47.3 916.8 44.7C944.7 42 972.3 40 986.2 39L1000 38L1000 101L986.2 101C972.3 101 944.7 101 916.8 101C889 101 861 101 833.2 101C805.3 101 777.7 101 750 101C722.3 101 694.7 101 666.8 101C639 101 611 101 583.2 101C555.3 101 527.7 101 500 101C472.3 101 444.7 101 416.8 101C389 101 361 101 333.2 101C305.3 101 277.7 101 250 101C222.3 101 194.7 101 166.8 101C139 101 111 101 83.2 101C55.3 101 27.7 101 13.8 101L0 101Z" fill="#a2a2a2"></path><path d="M0 63L13.8 63C27.7 63 55.3 63 83.2 64.8C111 66.7 139 70.3 166.8 68.7C194.7 67 222.3 60 250 60C277.7 60 305.3 67 333.2 70.7C361 74.3 389 74.7 416.8 72.8C444.7 71 472.3 67 500 64.8C527.7 62.7 555.3 62.3 583.2 61C611 59.7 639 57.3 666.8 57.5C694.7 57.7 722.3 60.3 750 59.7C777.7 59 805.3 55 833.2 53.2C861 51.3 889 51.7 916.8 54.2C944.7 56.7 972.3 61.3 986.2 63.7L1000 66L1000 101L986.2 101C972.3 101 944.7 101 916.8 101C889 101 861 101 833.2 101C805.3 101 777.7 101 750 101C722.3 101 694.7 101 666.8 101C639 101 611 101 583.2 101C555.3 101 527.7 101 500 101C472.3 101 444.7 101 416.8 101C389 101 361 101 333.2 101C305.3 101 277.7 101 250 101C222.3 101 194.7 101 166.8 101C139 101 111 101 83.2 101C55.3 101 27.7 101 13.8 101L0 101Z" fill="#4e4e4e"></path><path d="M0 86L13.8 84.8C27.7 83.7 55.3 81.3 83.2 81.5C111 81.7 139 84.3 166.8 83.7C194.7 83 222.3 79 250 78C277.7 77 305.3 79 333.2 79.5C361 80 389 79 416.8 78.7C444.7 78.3 472.3 78.7 500 78.2C527.7 77.7 555.3 76.3 583.2 75.2C611 74 639 73 666.8 73.3C694.7 73.7 722.3 75.3 750 77.2C777.7 79 805.3 81 833.2 81.2C861 81.3 889 79.7 916.8 78.2C944.7 76.7 972.3 75.3 986.2 74.7L1000 74L1000 101L986.2 101C972.3 101 944.7 101 916.8 101C889 101 861 101 833.2 101C805.3 101 777.7 101 750 101C722.3 101 694.7 101 666.8 101C639 101 611 101 583.2 101C555.3 101 527.7 101 500 101C472.3 101 444.7 101 416.8 101C389 101 361 101 333.2 101C305.3 101 277.7 101 250 101C222.3 101 194.7 101 166.8 101C139 101 111 101 83.2 101C55.3 101 27.7 101 13.8 101L0 101Z" fill="#000000"></path></svg>