<svg width="254" height="82" viewBox="0 0 254 82" fill="none" xmlns="http://www.w3.org/2000/svg">
<rect width="254" height="82" fill="black"/>
<path d="M26.9509 13L7 68H17.0289L36.0713 13H26.9509Z" fill="white"/>
<path d="M41.4148 13L21.4639 68H31.4928L50.5352 13H41.4148Z" fill="#A2A2A2"/>
<path d="M55.8796 13L35.9287 68H45.9576L65 13H55.8796Z" fill="#5D5D5D"/>
<path d="M91.05 62.925V68H70.7V62.925H77.9V43.075C77.9 42.6417 77.9083 42.2 77.925 41.75C77.9417 41.3 77.9667 40.8417 78 40.375L73.25 44.325C72.9167 44.575 72.5917 44.7333 72.275 44.8C71.9583 44.8667 71.6583 44.875 71.375 44.825C71.0917 44.7583 70.8417 44.6583 70.625 44.525C70.4083 44.375 70.2417 44.225 70.125 44.075L67.95 41.15L79.1 31.7H84.775V62.925H91.05ZM96.4789 41.95C96.7456 40.1833 97.2456 38.6333 97.9789 37.3C98.7122 35.9667 99.6289 34.8583 100.729 33.975C101.829 33.0917 103.079 32.4333 104.479 32C105.896 31.55 107.421 31.325 109.054 31.325C110.787 31.325 112.337 31.575 113.704 32.075C115.087 32.5583 116.254 33.225 117.204 34.075C118.154 34.925 118.879 35.9167 119.379 37.05C119.896 38.1833 120.154 39.4 120.154 40.7C120.154 41.85 120.029 42.8667 119.779 43.75C119.546 44.6167 119.187 45.375 118.704 46.025C118.237 46.675 117.654 47.225 116.954 47.675C116.271 48.125 115.479 48.5 114.579 48.8C118.746 50.1667 120.829 52.9417 120.829 57.125C120.829 58.975 120.487 60.6083 119.804 62.025C119.121 63.425 118.204 64.6 117.054 65.55C115.904 66.5 114.562 67.2167 113.029 67.7C111.512 68.1667 109.921 68.4 108.254 68.4C106.487 68.4 104.929 68.2 103.579 67.8C102.229 67.4 101.037 66.8 100.004 66C98.9872 65.2 98.1122 64.2 97.3789 63C96.6456 61.7833 96.0039 60.3667 95.4539 58.75L98.5039 57.5C99.3039 57.1667 100.046 57.075 100.729 57.225C101.429 57.375 101.929 57.7417 102.229 58.325C102.562 58.9583 102.912 59.5417 103.279 60.075C103.662 60.6083 104.087 61.075 104.554 61.475C105.021 61.8583 105.546 62.1583 106.129 62.375C106.729 62.5917 107.412 62.7 108.179 62.7C109.146 62.7 109.987 62.5417 110.704 62.225C111.421 61.9083 112.021 61.5 112.504 61C112.987 60.4833 113.346 59.9083 113.579 59.275C113.829 58.625 113.954 57.9833 113.954 57.35C113.954 56.5167 113.879 55.7667 113.729 55.1C113.579 54.4167 113.229 53.8417 112.679 53.375C112.146 52.8917 111.346 52.525 110.279 52.275C109.229 52.0083 107.796 51.875 105.979 51.875V47.025C107.496 47.025 108.737 46.9 109.704 46.65C110.671 46.4 111.429 46.05 111.979 45.6C112.529 45.15 112.904 44.6083 113.104 43.975C113.321 43.3417 113.429 42.65 113.429 41.9C113.429 40.3167 113.012 39.1083 112.179 38.275C111.362 37.4417 110.196 37.025 108.679 37.025C108.012 37.025 107.396 37.125 106.829 37.325C106.279 37.5083 105.779 37.7667 105.329 38.1C104.896 38.4333 104.521 38.825 104.204 39.275C103.887 39.725 103.654 40.2167 103.504 40.75C103.187 41.5833 102.779 42.1417 102.279 42.425C101.779 42.6917 101.054 42.75 100.104 42.6L96.4789 41.95ZM152.483 37.775H141.883V68H134.358V37.775H123.758V31.725H152.483V37.775ZM166.427 52.075C166.427 51.3583 166.327 50.675 166.127 50.025C165.943 49.375 165.643 48.8 165.227 48.3C164.81 47.8 164.285 47.4083 163.652 47.125C163.018 46.825 162.26 46.675 161.377 46.675C159.727 46.675 158.435 47.1417 157.502 48.075C156.568 49.0083 155.96 50.3417 155.677 52.075H166.427ZM155.577 56.175C155.793 58.5917 156.477 60.3583 157.627 61.475C158.793 62.5917 160.31 63.15 162.177 63.15C163.127 63.15 163.943 63.0417 164.627 62.825C165.327 62.5917 165.935 62.3417 166.452 62.075C166.985 61.7917 167.46 61.5417 167.877 61.325C168.31 61.0917 168.735 60.975 169.152 60.975C169.685 60.975 170.102 61.175 170.402 61.575L172.402 64.075C171.668 64.925 170.86 65.6333 169.977 66.2C169.093 66.75 168.177 67.1917 167.227 67.525C166.277 67.8417 165.318 68.0583 164.352 68.175C163.385 68.3083 162.452 68.375 161.552 68.375C159.752 68.375 158.068 68.0833 156.502 67.5C154.952 66.9 153.593 66.025 152.427 64.875C151.277 63.7083 150.368 62.2667 149.702 60.55C149.035 58.8333 148.702 56.8417 148.702 54.575C148.702 52.825 148.985 51.175 149.552 49.625C150.135 48.075 150.968 46.725 152.052 45.575C153.135 44.425 154.452 43.5167 156.002 42.85C157.552 42.1667 159.302 41.825 161.252 41.825C162.902 41.825 164.418 42.0917 165.802 42.625C167.202 43.1417 168.402 43.9 169.402 44.9C170.418 45.9 171.202 47.1333 171.752 48.6C172.318 50.05 172.602 51.7083 172.602 53.575C172.602 54.0917 172.577 54.5167 172.527 54.85C172.477 55.1833 172.393 55.45 172.277 55.65C172.16 55.85 172.002 55.9917 171.802 56.075C171.602 56.1417 171.343 56.175 171.027 56.175H155.577ZM190.358 57.225C188.675 57.3083 187.275 57.4583 186.158 57.675C185.042 57.875 184.15 58.1417 183.483 58.475C182.833 58.8083 182.367 59.1917 182.083 59.625C181.817 60.0417 181.683 60.5 181.683 61C181.683 62 181.958 62.7083 182.508 63.125C183.075 63.5417 183.858 63.75 184.858 63.75C186.008 63.75 187 63.55 187.833 63.15C188.683 62.7333 189.525 62.0917 190.358 61.225V57.225ZM176.308 45.8C177.825 44.4333 179.5 43.4167 181.333 42.75C183.167 42.0667 185.15 41.725 187.283 41.725C188.817 41.725 190.183 41.975 191.383 42.475C192.6 42.975 193.625 43.675 194.458 44.575C195.308 45.4583 195.958 46.5167 196.408 47.75C196.858 48.9833 197.083 50.3333 197.083 51.8V68H193.933C193.283 68 192.783 67.9083 192.433 67.725C192.1 67.5417 191.825 67.1583 191.608 66.575L191.058 64.925C190.408 65.4917 189.775 65.9917 189.158 66.425C188.558 66.8583 187.933 67.225 187.283 67.525C186.633 67.8083 185.933 68.025 185.183 68.175C184.45 68.325 183.625 68.4 182.708 68.4C181.575 68.4 180.542 68.25 179.608 67.95C178.675 67.65 177.867 67.2083 177.183 66.625C176.517 66.025 176 65.2833 175.633 64.4C175.267 63.5167 175.083 62.5 175.083 61.35C175.083 60.4 175.325 59.45 175.808 58.5C176.292 57.55 177.117 56.6917 178.283 55.925C179.467 55.1417 181.033 54.5 182.983 54C184.95 53.4833 187.408 53.1917 190.358 53.125V51.8C190.358 50.1833 190.017 49 189.333 48.25C188.65 47.4833 187.667 47.1 186.383 47.1C185.433 47.1 184.642 47.2167 184.008 47.45C183.375 47.6667 182.817 47.9083 182.333 48.175C181.867 48.425 181.425 48.6667 181.008 48.9C180.592 49.1167 180.108 49.225 179.558 49.225C179.075 49.225 178.667 49.1083 178.333 48.875C178.017 48.625 177.75 48.3333 177.533 48L176.308 45.8ZM202.469 68V42.225H206.719C207.586 42.225 208.161 42.625 208.444 43.425L208.844 45.1C209.294 44.6333 209.752 44.2 210.219 43.8C210.702 43.4 211.219 43.0583 211.769 42.775C212.319 42.475 212.911 42.2417 213.544 42.075C214.194 41.9083 214.894 41.825 215.644 41.825C217.227 41.825 218.536 42.25 219.569 43.1C220.602 43.9333 221.386 45.05 221.919 46.45C222.336 45.6333 222.844 44.9333 223.444 44.35C224.061 43.75 224.727 43.2667 225.444 42.9C226.177 42.5333 226.944 42.2667 227.744 42.1C228.561 41.9167 229.377 41.825 230.194 41.825C231.644 41.825 232.927 42.0417 234.044 42.475C235.161 42.9083 236.094 43.55 236.844 44.4C237.611 45.2333 238.194 46.2583 238.594 47.475C238.994 48.6917 239.194 50.075 239.194 51.625V68H232.294V51.625C232.294 48.6083 231.002 47.1 228.419 47.1C227.836 47.1 227.294 47.2 226.794 47.4C226.311 47.5833 225.877 47.8667 225.494 48.25C225.127 48.6333 224.836 49.1083 224.619 49.675C224.419 50.2417 224.319 50.8917 224.319 51.625V68H217.419V51.625C217.419 49.9917 217.094 48.8333 216.444 48.15C215.811 47.45 214.869 47.1 213.619 47.1C212.819 47.1 212.061 47.2917 211.344 47.675C210.644 48.0417 209.986 48.5583 209.369 49.225V68H202.469Z" fill="white"/>
</svg>
